<svg version="1.0" xmlns="http://www.w3.org/2000/svg"  width="193.000000pt" height="150.000000pt" viewBox="0 0 193.000000 150.000000"  preserveAspectRatio="xMidYMid meet"><g transform="translate(0.000000,150.000000) scale(0.100000,-0.100000)" fill="currentColor" stroke="none"><path d="M460 1477 c-24 -12 -26 -19 -36 -147 -20 -241 -49 -363 -99 -416 -50 -53 -100 -45 -193 32 -59 47 -63 49 -93 34 -13 -7 -19 -21 -19 -45 0 -27 8 -40 41 -69 108 -92 232 -109 321 -43 32 24 80 112 102 187 18 64 42 225 52 356 6 88 6 92 -17 108 -28 19 -27 19 -59 3z"/><path d="M1789 1432 c-26 -26 -94 -110 -152 -188 -102 -135 -133 -171 -141 -163 -2 2 -32 81 -66 176 -72 198 -88 222 -144 203 -40 -13 -42 -18 -50 -120 -3 -36 -28 -154 -55 -263 -56 -215 -61 -265 -33 -290 45 -41 80 -12 97 83 30 166 82 393 87 384 3 -5 18 -48 32 -96 37 -123 61 -174 90 -193 22 -15 27 -15 53 -1 40 20 93 80 198 223 49 67 91 120 93 119 1 -2 -6 -66 -17 -142 -28 -195 -35 -303 -22 -337 15 -39 53 -54 85 -34 24 16 24 19 24 139 -1 74 8 198 22 311 24 186 24 188 4 206 -38 37 -57 34 -105 -17z"/><path d="M855 1461 c-153 -19 -287 -69 -293 -110 -4 -27 14 -51 39 -51 12 0 19 -7 19 -18 0 -35 -42 -318 -56 -381 -18 -77 -11 -119 22 -131 30 -12 70 2 77 27 3 10 8 50 12 88 13 147 58 431 70 451 17 27 84 44 169 44 55 0 67 -3 80 -21 33 -48 -40 -132 -170 -194 -63 -30 -74 -38 -74 -60 0 -38 40 -50 98 -30 68 23 99 19 133 -14 36 -36 38 -77 7 -117 -53 -67 -109 -99 -193 -107 -45 -5 -64 -11 -78 -28 -42 -52 12 -88 102 -70 155 31 301 162 301 270 0 55 -34 107 -87 133 l-48 23 67 65 c62 60 68 69 68 106 0 99 -99 146 -265 125z"/><path d="M1755 715 c-23 -24 -70 -96 -106 -160 -135 -244 -202 -356 -210 -348 -14 16 -119 292 -148 393 -16 56 -34 107 -39 112 -18 18 -108 17 -257 -3 -82 -12 -172 -19 -200 -16 -83 8 -111 -17 -84 -76 12 -27 -15 -256 -52 -431 -34 -165 -22 -175 171 -152 69 8 161 18 205 21 107 9 127 18 123 52 -5 47 -36 53 -173 32 -66 -10 -144 -18 -172 -18 -52 -1 -53 0 -53 27 0 55 23 143 39 151 9 5 79 16 156 26 150 18 185 32 185 69 0 40 -47 49 -155 31 -126 -21 -185 -20 -185 2 0 49 35 173 49 177 33 10 188 26 251 26 l65 0 32 -82 c110 -291 184 -474 197 -486 11 -12 20 -12 50 -2 29 9 42 22 60 58 30 63 246 419 307 508 53 76 60 107 30 124 -32 17 -43 12 -86 -35z"/><path d="M250 710 c-52 -5 -112 -6 -132 -3 -30 4 -41 1 -63 -21 -32 -32 -29 -56 8 -74 32 -15 31 -12 12 -122 -8 -47 -21 -153 -29 -237 -8 -83 -20 -161 -26 -172 -13 -25 0 -55 31 -71 16 -9 33 -5 87 19 37 16 96 37 132 46 86 21 172 62 245 118 105 79 149 157 148 262 0 85 -19 131 -74 185 -68 65 -162 85 -339 70z m220 -102 c56 -29 81 -64 87 -121 8 -64 -3 -107 -38 -161 -45 -67 -126 -121 -236 -156 -136 -44 -133 -45 -133 45 0 88 38 375 52 392 12 15 43 20 143 22 66 1 89 -3 125 -21z"/></g></svg>